HIERARCHY
ROOT Hips
{
	OFFSET -3.958830 18.904000 13.208200
	CHANNELS 6 Xposition Yposition Zposition Zrotation Yrotation Xrotation 
	JOINT LHipJoint
	{
		OFFSET 0.000000 0.000000 0.000000
		CHANNELS 3 Zrotation Yrotation Xrotation
		JOINT LeftUpLeg
		{
			OFFSET 1.800000 -1.400000 0.085000
			CHANNELS 3 Zrotation Yrotation Xrotation
			JOINT LeftLeg
			{
				OFFSET 2.215000 -6.000000 0.000000
				CHANNELS 3 Zrotation Yrotation Xrotation
				JOINT LeftFoot
				{
					OFFSET 2.500000 -6.900000 0.000000
					CHANNELS 3 Zrotation Yrotation Xrotation
					JOINT LeftToeBase
					{
						OFFSET 0.200000 -0.500000 1.950000
						CHANNELS 3 Zrotation Yrotation Xrotation
						End Site
						{
							OFFSET 0.000000 0.000000 0.000000
						}
					}
				}
			}
		}
	}
	JOINT RHipJoint
	{
		OFFSET 0.000000 0.000000 0.000000
		CHANNELS 3 Zrotation Yrotation Xrotation
		JOINT RightUpLeg
		{
			OFFSET -1.800000 -1.400000 0.085000
			CHANNELS 3 Zrotation Yrotation Xrotation
			JOINT RightLeg
			{
				OFFSET -2.215000 -6.000000 0.000000
				CHANNELS 3 Zrotation Yrotation Xrotation
				JOINT RightFoot
				{
					OFFSET -2.500000 -6.900000 0.000000
					CHANNELS 3 Zrotation Yrotation Xrotation
					JOINT RightToeBase
					{
						OFFSET -0.200000 -0.500000 1.950000
						CHANNELS 3 Zrotation Yrotation Xrotation
						End Site
						{
							OFFSET 0.000000 0.000000 0.000000
						}
					}
				}
			}
		}
	}
	JOINT LowerBack
	{
		OFFSET 0.000000 0.000000 0.000000
		CHANNELS 3 Zrotation Yrotation Xrotation
		JOINT Spine
		{
			OFFSET -0.087000 1.940000 -0.288900
			CHANNELS 3 Zrotation Yrotation Xrotation
			JOINT Spine1
			{
				OFFSET 0.000000 1.950000 0.060000
				CHANNELS 3 Zrotation Yrotation Xrotation
				JOINT Neck
				{
					OFFSET 0.000000 0.000000 0.000000
					CHANNELS 3 Zrotation Yrotation Xrotation
					JOINT Neck1
					{
						OFFSET 0.000000 1.600000 0.340000
						CHANNELS 3 Zrotation Yrotation Xrotation
						JOINT Head
						{
							OFFSET 0.000000 1.667000 -0.240000
							CHANNELS 3 Zrotation Yrotation Xrotation
							End Site
							{
								OFFSET 0.000000 0.000000 0.000000
							}
						}
					}
				}
				JOINT LeftShoulder
				{
					OFFSET 0.000000 0.000000 0.000000
					CHANNELS 3 Zrotation Yrotation Xrotation
					JOINT LeftArm
					{
						OFFSET 2.700000 1.550000 -0.730000
						CHANNELS 3 Zrotation Yrotation Xrotation
						JOINT LeftForeArm
						{
							OFFSET 5.450000 0.000000 0.000000
							CHANNELS 3 Zrotation Yrotation Xrotation
							JOINT LeftHand
							{
								OFFSET 3.450000 0.000000 0.000000
								CHANNELS 3 Zrotation Yrotation Xrotation
								JOINT LeftHandIndex1
								{
									OFFSET 0.750000 0.000000 0.000000
									CHANNELS 3 Zrotation Yrotation Xrotation
									End Site
									{
										OFFSET 0.000000 0.000000 0.000000
									}
								}
							}
						}
					}
				}
				JOINT RightShoulder
				{
					OFFSET 0.000000 0.000000 0.000000
					CHANNELS 3 Zrotation Yrotation Xrotation
					JOINT RightArm
					{
						OFFSET -2.700000 1.550000 -0.730000
						CHANNELS 3 Zrotation Yrotation Xrotation
						JOINT RightForeArm
						{
							OFFSET -5.450000 0.000000 0.000000
							CHANNELS 3 Zrotation Yrotation Xrotation
							JOINT RightHand
							{
								OFFSET -3.450000 0.000000 0.000000
								CHANNELS 3 Zrotation Yrotation Xrotation
								JOINT RightHandIndex1
								{
									OFFSET -0.750000 0.000000 0.000000
									CHANNELS 3 Zrotation Yrotation Xrotation
									End Site
									{
										OFFSET 0.000000 0.000000 0.000000
									}
								}
							}
						}
					}
				}
			}
		}
	}
}
MOTION
Frames: 6
Frame Time: 0.016667
-1.198010 16.430220 -3.650160 -4.015378 10.834408 -6.023242 -15.513580 11.807606 5.407595 23.702333 0.354367 -35.207712 -17.782311 24.894670 49.872414 1.284388 12.042655 0.152018 0.554340 0.532840 0.428820 18.113567 -10.182473 1.791964 -31.218093 3.947734 -15.664048 8.671123 -12.136414 38.606473 -0.679790 -6.820000 1.692286 0.301860 -0.290970 0.022200 -3.073361 -1.515687 -9.112684 10.802904 0.059276 24.249224 3.513968 0.963571 11.463304 4.188122 -2.168294 -11.454252 -5.065783 1.395634 59.414343 -1.844550 -5.821120 -11.381990 -31.373370 -18.032779 7.596035 -54.918596 -2.312607 -3.738982 -7.787491 -11.671718 -0.676003 -3.385570 2.954840 0.309670 -0.245040 0.260530 0.046650 24.208716 26.878223 4.900289 39.790126 39.232764 -0.388862 -73.900461 88.496520 -64.024259 1.098598 3.759783 0.098860 0.128310 -0.182700 -0.093940 
-1.213430 16.425340 -3.639320 -4.140381 10.972918 -6.199106 -15.506503 11.804460 5.373532 23.426650 0.428196 -35.639951 -16.499929 24.694306 51.062065 1.291435 12.097697 0.136380 0.543730 0.521050 0.425330 18.114606 -10.201967 1.819201 -31.186670 4.054372 -15.125888 9.335361 -12.343807 38.255685 -0.685017 -6.860107 1.681001 0.293820 -0.288250 0.020570 -3.088319 -1.445868 -9.122674 10.924736 0.277477 24.306047 3.679321 1.164220 11.542604 4.232497 -1.831642 -11.647727 -4.226553 0.901136 60.002242 -1.959890 -5.912690 -10.792200 -31.178006 -18.406236 7.818129 -54.275158 -2.043934 -3.443647 -9.606781 -10.159297 -0.631748 -3.397616 2.951387 0.304820 -0.240630 0.256810 0.043180 23.997739 27.140360 5.072743 39.543153 38.841948 -1.429500 -70.403794 88.501946 -60.715893 1.118594 3.138289 0.097670 0.126530 -0.179270 -0.093820 
-1.231700 16.409140 -3.623380 -4.122472 11.246890 -6.670272 -15.493661 11.935329 5.238577 22.220195 0.302140 -36.056930 -13.487143 23.848215 53.571222 1.286184 12.117504 0.126094 0.542800 0.523090 0.425600 18.088843 -10.304650 1.830868 -31.122093 4.130283 -13.857592 9.713939 -12.338219 37.564087 -0.689547 -6.845331 1.690309 0.293170 -0.298080 0.018140 -3.082481 -1.431319 -9.087148 10.771853 0.448913 24.741032 3.494849 1.319403 11.607964 4.431682 -1.434510 -11.866464 -3.137881 0.568421 61.135626 -2.242690 -5.689140 -10.131830 -31.539735 -18.824486 8.160840 -52.831469 -1.045531 -3.138441 -11.088292 -7.379796 -0.716774 -3.398811 2.948159 0.305310 -0.241230 0.261890 0.043740 24.066163 27.483712 5.202921 39.050064 38.327607 -2.501427 -62.330577 88.527834 -53.895220 1.235536 1.951761 0.099400 0.120450 -0.182820 -0.097230 
-1.251500 16.380570 -3.594700 -4.301231 10.985440 -6.871794 -15.494168 12.045764 5.151801 21.373705 0.308533 -36.274879 -11.411271 23.258047 55.341100 1.283399 12.151440 0.112570 0.543140 0.522150 0.441170 18.055507 -10.451041 1.755933 -30.322073 4.050658 -12.479461 9.129845 -11.823003 36.672534 -0.666779 -6.682673 1.752705 0.293990 -0.305860 0.022200 -3.040129 -1.352521 -9.004194 10.488875 0.955986 24.557540 4.030483 1.681845 11.835653 4.554339 -0.647975 -11.820346 -1.088937 -0.274486 61.616380 -2.838700 -5.140110 -9.608880 -31.300418 -18.552813 8.230341 -52.191037 -0.590890 -2.806536 -11.728977 -5.378415 -0.819604 -3.425834 2.932522 0.304760 -0.232670 0.266160 0.038090 23.701725 26.865744 5.097460 38.923365 37.979132 -2.574612 -55.359812 87.985870 -47.864459 1.346835 1.122251 0.097850 0.113920 -0.186070 -0.108090 
-1.265780 16.360400 -3.558570 -4.766958 10.383764 -7.250555 -15.474897 12.206538 5.080047 21.120262 0.474986 -35.712249 -10.157761 22.769676 56.172217 1.271358 12.125132 0.113523 0.545510 0.518960 0.464930 18.029503 -10.650417 1.617008 -28.745566 3.718586 -10.556206 7.725597 -10.833330 35.268232 -0.626288 -6.354528 1.881726 0.289620 -0.320130 0.025310 -3.041599 -1.306861 -8.888459 10.888390 1.132038 24.421080 4.495561 1.823016 12.138007 4.644495 -0.446867 -11.762243 -0.483001 -0.776886 62.326168 -3.712780 -4.972670 -9.478610 -31.236064 -18.064268 8.243979 -51.535833 -0.019289 -2.749002 -11.755978 -4.723946 -0.855910 -3.436484 2.909777 0.310370 -0.234020 0.275320 0.026780 23.549147 26.308495 5.028775 38.262643 37.147791 -2.554698 -44.867658 87.702000 -39.507697 1.525861 0.232137 0.099670 0.111700 -0.187390 -0.118630 
-1.257070 16.334790 -3.525300 -5.343592 9.516084 -7.608403 -15.390960 12.346496 4.937883 20.814982 0.547522 -34.118551 -9.855450 22.273438 55.734553 1.242263 11.966814 0.156642 0.541080 0.511050 0.468970 18.053166 -10.921470 1.518489 -27.187489 3.093819 -8.159799 6.199106 -9.674075 32.649128 -0.568935 -5.948567 2.048117 0.286820 -0.325280 0.033270 -3.204776 -1.090025 -8.733560 12.416428 1.158580 24.024890 4.052594 1.942724 12.377683 4.979986 -0.202334 -11.449319 0.262160 -1.160662 62.577501 -4.496570 -4.639580 -8.799240 -31.944196 -17.316642 8.196126 -50.023390 0.617335 -2.718700 -9.844722 -5.180975 -0.759160 -3.444204 2.909026 0.302250 -0.222200 0.270900 0.020360 23.550007 25.338855 4.609780 36.950891 35.792249 -2.686768 -40.238767 88.452492 -36.317536 1.599110 -0.101350 0.101870 0.095420 -0.185550 -0.125810 
